<svg width="187" height="49" viewBox="0 0 187 49" fill="none" xmlns="http://www.w3.org/2000/svg">
<path d="M1 1L51.577 1L26.2885 47L1 1ZM47.8121 3.13954L4.76487 3.13954L26.2885 42.2933L47.8121 3.13954Z" fill="#FFBDE3" stroke="#FFBDE3"/>
<path d="M26.2885 24.8915L19.6338 14.1938H25.1359V2.06976H27.4412V14.1938H32.9433L26.2885 24.8915Z" fill="#FFBDE3"/>
<path d="M186.052 16.2962C186.052 15.9311 185.912 15.6192 185.634 15.3606C185.355 15.0867 185.027 14.9422 184.65 14.9269H179.978V28.5971C179.994 28.9927 180.15 29.3274 180.445 29.6013C180.757 29.8752 181.125 30.0121 181.552 30.0121H181.871V30.2403H176.486V30.0121H176.806C177.232 30.0121 177.593 29.8752 177.888 29.6013C178.199 29.3274 178.363 29.0003 178.379 28.62V14.9269H173.707C173.314 14.9422 172.978 15.0867 172.699 15.3606C172.437 15.6192 172.306 15.9311 172.306 16.2962V16.6842L172.06 16.707V13.8315C172.306 13.9228 172.732 14.0141 173.339 14.1054C173.945 14.1967 174.502 14.2423 175.011 14.2423H183.322C184.125 14.2423 184.789 14.189 185.314 14.0825C185.855 13.9608 186.183 13.8771 186.297 13.8315V16.707L186.052 16.6842V16.2962Z" fill="#FFBDE3" stroke="#FFBDE3"/>
<path d="M161.373 29.3046C161.324 29.0916 161.3 28.6808 161.3 28.0723C161.3 27.4637 161.423 26.8171 161.669 26.1324H161.89C161.873 26.2998 161.865 26.4671 161.865 26.6345C161.865 27.5626 162.169 28.3385 162.775 28.9623C163.382 29.5709 164.185 29.8752 165.185 29.8752C166.218 29.8752 167.062 29.5861 167.718 29.0079C168.39 28.4298 168.726 27.7071 168.726 26.8399C168.726 25.9574 168.406 25.2424 167.767 24.6946L163.046 20.6324C162.16 19.8717 161.718 18.9512 161.718 17.871C161.718 16.7907 162.103 15.8702 162.873 15.1095C163.66 14.3336 164.718 13.9456 166.046 13.9456C166.668 13.9456 167.373 14.0217 168.16 14.1738H169.119V16.9809H168.898C168.898 16.2658 168.627 15.6953 168.087 15.2693C167.562 14.8433 166.882 14.6303 166.046 14.6303C165.209 14.6303 164.505 14.8889 163.931 15.4062C163.373 15.9235 163.095 16.5701 163.095 17.3461C163.095 18.122 163.423 18.7914 164.078 19.3544L168.923 23.5079C169.742 24.2078 170.152 25.1663 170.152 26.3834C170.152 27.6006 169.734 28.6048 168.898 29.3959C168.062 30.1719 166.947 30.5598 165.554 30.5598C164.832 30.5598 164.062 30.4533 163.242 30.2403C162.439 30.0425 161.816 29.7306 161.373 29.3046Z" fill="#FFBDE3" stroke="#FFBDE3"/>
<path d="M147.477 30.0121C147.903 30.0121 148.263 29.8752 148.559 29.6013C148.87 29.3122 149.034 28.9699 149.05 28.5743V15.7942C149.05 15.429 148.895 15.1247 148.583 14.8813C148.272 14.6227 147.903 14.4933 147.477 14.4933H147.181L147.157 14.2651H154.362C154.87 14.2651 155.419 14.2195 156.009 14.1282C156.616 14.0369 157.042 13.9456 157.288 13.8543V16.7299H157.042V16.3191C157.042 15.9539 156.903 15.642 156.624 15.3834C156.362 15.1247 156.042 14.9878 155.665 14.9726H150.649V22.0245H154.804C155.132 22.0093 155.411 21.8952 155.64 21.6822C155.87 21.4692 155.985 21.2029 155.985 20.8834V20.5639H156.231V24.1697H155.985V23.8274C155.985 23.5231 155.87 23.2645 155.64 23.0515C155.427 22.8385 155.157 22.7244 154.829 22.7092H150.649V29.5328H154.165C155.378 29.5328 156.304 29.2818 156.944 28.7797C157.583 28.2776 158.116 27.5321 158.542 26.5432H158.788L157.362 30.2403H147.157V30.0121H147.477Z" fill="#FFBDE3" stroke="#FFBDE3"/>
<path d="M150.948 33.7092C149.637 34.0896 148.456 34.1581 147.407 33.9146C146.309 33.6408 145.358 33.2148 144.555 32.6366C143.784 32.0585 142.997 31.3662 142.194 30.5598L129.235 17.232V28.6428C129.252 29.1753 129.506 29.5709 129.998 29.8295C130.227 29.9513 130.473 30.0121 130.735 30.0121H131.202V30.2403H126.137V30.0121H126.604C127.014 30.0121 127.366 29.8828 127.662 29.6241C127.957 29.3503 128.104 29.0156 128.104 28.62V16.0909C128.022 15.9844 127.858 15.7866 127.612 15.4975C127.366 15.1932 127.162 14.9498 126.998 14.7672C126.834 14.5846 126.612 14.3488 126.334 14.0597C126.055 13.7554 125.793 13.512 125.547 13.3294C125.317 13.1469 125.047 12.9339 124.735 12.6904C124.244 12.3405 123.719 12.0895 123.162 11.9373C122.604 11.7852 122.137 11.7091 121.76 11.7091C121.367 11.7091 120.949 11.77 120.506 11.8917L120.408 11.6635C121.194 11.3592 121.957 11.207 122.694 11.207C123.416 11.207 124.039 11.2907 124.563 11.4581C125.088 11.6102 125.653 11.8917 126.26 12.3025C126.866 12.7133 127.358 13.0936 127.735 13.4436C128.129 13.7935 128.596 14.2499 129.137 14.8129L141.53 27.593V15.8855C141.514 15.4899 141.358 15.1628 141.063 14.9041C140.768 14.6303 140.415 14.4933 140.006 14.4933H139.538V14.2651H144.604V14.4933H144.161C143.752 14.4933 143.399 14.6303 143.104 14.9041C142.809 15.1628 142.653 15.4823 142.637 15.8627V28.7569C142.801 28.9243 143.03 29.1753 143.325 29.51C143.637 29.8447 143.85 30.0806 143.965 30.2175C144.096 30.3544 144.284 30.5522 144.53 30.8109C144.776 31.0695 144.981 31.2673 145.145 31.4042C145.325 31.5564 145.538 31.739 145.784 31.952C146.047 32.1802 146.284 32.3551 146.497 32.4769C146.727 32.6138 146.981 32.7659 147.26 32.9333C147.653 33.1463 148.096 33.306 148.588 33.4125C149.096 33.519 149.506 33.5723 149.817 33.5723C150.145 33.5723 150.489 33.5419 150.85 33.481L150.948 33.7092Z" fill="#FFBDE3" stroke="#FFBDE3"/>
<path d="M125.106 30.0121H125.303V30.2403H119.77V30.0121H119.992C120.336 30.0121 120.59 29.9132 120.754 29.7154C120.934 29.5024 121.024 29.3046 121.024 29.1221C121.024 28.9395 120.992 28.7569 120.926 28.5743L119.352 24.6946H112.713L111.066 28.5972C111 28.7797 110.967 28.9623 110.967 29.1449C110.967 29.3122 111.049 29.5024 111.213 29.7154C111.393 29.9132 111.656 30.0121 112 30.0121H112.221V30.2403H107.279V30.0121H107.5C107.91 30.0121 108.311 29.8904 108.705 29.647C109.098 29.4035 109.418 29.046 109.664 28.5743L115.221 16.2963C115.828 15.0639 116.131 14.2803 116.131 13.9456H116.352L122.942 28.5743C123.172 29.046 123.483 29.4035 123.877 29.647C124.27 29.8904 124.68 30.0121 125.106 30.0121ZM113.008 24.01H119.057L116.106 16.6842L113.008 24.01Z" fill="#FFBDE3" stroke="#FFBDE3"/>
<path d="M105.416 14.2651H110.358V14.4933H110.137C109.727 14.4933 109.325 14.6151 108.932 14.8585C108.539 15.0867 108.227 15.4366 107.998 15.9083L102.071 28.2092C101.465 29.4416 101.162 30.2251 101.162 30.5598H100.94L94.0305 15.9311C93.801 15.4442 93.4814 15.0867 93.0715 14.8585C92.6781 14.6151 92.2765 14.4933 91.8666 14.4933H91.6699V14.2651H97.2026V14.4933H96.9813C96.6371 14.4933 96.3748 14.5998 96.1944 14.8128C96.0305 15.0106 95.9485 15.2008 95.9485 15.3834C95.9485 15.5507 95.9895 15.7257 96.0715 15.9083L101.211 27.8669L106.571 15.9083C106.637 15.7257 106.67 15.5507 106.67 15.3834C106.67 15.2008 106.58 15.0106 106.399 14.8128C106.235 14.5998 105.981 14.4933 105.637 14.4933H105.416V14.2651Z" fill="#FFBDE3" stroke="#FFBDE3"/>
<path d="M75.5267 16.2506C77.2807 14.7139 79.5512 13.9456 82.338 13.9456C85.1413 13.9456 87.4199 14.7139 89.174 16.2506C90.9281 17.7721 91.8051 19.7728 91.8051 22.2527C91.8051 24.7327 90.9281 26.741 89.174 28.2777C87.4199 29.7991 85.1413 30.5598 82.338 30.5598C79.5512 30.5598 77.2807 29.7991 75.5267 28.2777C73.7726 26.741 72.8955 24.7327 72.8955 22.2527C72.8955 19.7728 73.7726 17.7721 75.5267 16.2506ZM76.8545 27.7756C78.2479 29.1753 80.0758 29.8752 82.338 29.8752C84.6003 29.8752 86.42 29.1753 87.797 27.7756C89.1904 26.3758 89.8871 24.5349 89.8871 22.2527C89.8871 19.9705 89.1904 18.1296 87.797 16.7299C86.42 15.3301 84.6003 14.6303 82.338 14.6303C80.0758 14.6303 78.2479 15.3301 76.8545 16.7299C75.4775 18.1296 74.789 19.9705 74.789 22.2527C74.789 24.5349 75.4775 26.3758 76.8545 27.7756Z" fill="#FFBDE3" stroke="#FFBDE3"/>
<path d="M77.6589 33.7092C76.3474 34.0896 75.1671 34.158 74.1179 33.9146C73.0196 33.6407 72.0688 33.2147 71.2655 32.6366C70.495 32.0584 69.7082 31.3662 68.9049 30.5598L55.946 17.2319V28.6428C55.9624 29.1753 56.2165 29.5709 56.7083 29.8295C56.9378 29.9512 57.1837 30.0121 57.446 30.0121H57.9132V30.2403H52.8477V30.0121H53.3149C53.7248 30.0121 54.0772 29.8828 54.3723 29.6241C54.6674 29.3503 54.8149 29.0155 54.8149 28.62V16.0909C54.7329 15.9844 54.569 15.7866 54.3231 15.4975C54.0772 15.1932 53.8723 14.9498 53.7084 14.7672C53.5444 14.5846 53.3231 14.3488 53.0444 14.0597C52.7658 13.7554 52.5035 13.512 52.2576 13.3294C52.0281 13.1469 51.7576 12.9339 51.4461 12.6904C50.9543 12.3405 50.4297 12.0894 49.8723 11.9373C49.315 11.7852 48.8478 11.7091 48.4707 11.7091C48.0773 11.7091 47.6593 11.7699 47.2166 11.8917L47.1183 11.6634C47.9052 11.3592 48.6674 11.207 49.4051 11.207C50.1264 11.207 50.7494 11.2907 51.274 11.458C51.7986 11.6102 52.3641 11.8917 52.9707 12.3025C53.5772 12.7132 54.069 13.0936 54.4461 13.4435C54.8395 13.7935 55.3067 14.2499 55.8477 14.8128L68.241 27.593V15.8855C68.2246 15.4899 68.0688 15.1628 67.7738 14.9041C67.4787 14.6303 67.1262 14.4933 66.7164 14.4933H66.2492V14.2651H71.3147V14.4933H70.8721C70.4623 14.4933 70.1098 14.6303 69.8147 14.9041C69.5196 15.1628 69.3639 15.4823 69.3475 15.8626V28.7569C69.5114 28.9243 69.741 29.1753 70.036 29.51C70.3475 29.8447 70.5606 30.0806 70.6754 30.2175C70.8065 30.3544 70.995 30.5522 71.2409 30.8109C71.4868 31.0695 71.6917 31.2673 71.8557 31.4042C72.036 31.5564 72.2491 31.7389 72.495 31.9519C72.7573 32.1802 72.995 32.3551 73.2081 32.4768C73.4376 32.6138 73.6917 32.7659 73.9704 32.9333C74.3638 33.1463 74.8065 33.306 75.2983 33.4125C75.8065 33.519 76.2163 33.5723 76.5278 33.5723C76.8556 33.5723 77.1999 33.5419 77.5605 33.481L77.6589 33.7092Z" fill="#FFBDE3" stroke="#FFBDE3"/>
</svg>
